# xmcd
#
# Track frame offsets:
#	182
#	22710
#	49167
#	67735
#	90792
#	107292
#	129095
#	145922
#	159975
#	175022
#	197690
#
# Disc length: 2862 seconds
#
# Revision: 4
# Processed by: cddbd v1.4PL0 Copyright (c) Steve Scherf et al.
# Submitted via: audiograbber 1.82.02
#
DISCID=710b2c0b
DTITLE=Jimmie Dale Gilmore - Braver Newer World
DYEAR=1996
DGENRE=Country
TTITLE0=Braver Newer World
TTITLE1=Come Fly Away
TTITLE2=Borderland
TTITLE3=Headed For A Fall
TTITLE4=Long, Long Time
TTITLE5=Sally
TTITLE6=There She Goes
TTITLE7=Where Is Love Now
TTITLE8=Black Snake Moan
TTITLE9=Because Of The Wind
TTITLE10=Outside The Lines
EXTD=
EXTT0=
EXTT1=
EXTT2=
EXTT3=
EXTT4=
EXTT5=
EXTT6=
EXTT7=
EXTT8=
EXTT9=
EXTT10=
PLAYORDER=
